<svg width="33" height="36" viewBox="0 0 33 36" fill="none" xmlns="http://www.w3.org/2000/svg">
  <path d="M0 2.51471e-05V16.5652H2.16577V2.27404L15.7096 2.28193V2.51471e-05H0Z" fill="black"/>
  <path d="M32.9999 36V19.4351H30.8341V33.726L17.2903 33.7182V36H32.9999Z" fill="black"/>
  <path d="M10.4029 16.5626V12.8739L6.69681 7.03459H8.8868L11.3101 10.8458L13.7332 7.03459H15.9232L12.2171 12.8739V16.5626H10.4029Z" fill="black"/>
  <path d="M25.4807 7.03459V12.1525C25.4807 14.7659 23.6794 16.5626 21.2691 16.5626C18.859 16.5626 17.0447 14.7659 17.0447 12.1525V7.03459H18.859V12.1525C18.859 13.7042 19.8956 14.657 21.2691 14.657C22.6427 14.657 23.6665 13.7042 23.6665 12.1525V7.03459H25.4807Z" fill="black"/>
  <path d="M15.5769 27.1254C15.3738 27.434 15.1384 27.713 14.8706 27.9625C14.6028 28.2121 14.307 28.4242 13.9829 28.5989C13.659 28.7735 13.3091 28.9074 12.9334 29.0003C12.5576 29.0933 12.1623 29.1399 11.7477 29.1399C11.0479 29.1399 10.4064 29.0173 9.82331 28.7724C9.24017 28.5274 8.73798 28.1848 8.31684 27.7447C7.89579 27.3046 7.56848 26.7829 7.33521 26.1794C7.10203 25.5761 6.98544 24.9159 6.98544 24.1989C6.98544 23.4822 7.10203 22.822 7.33521 22.2184C7.56848 21.6151 7.89579 21.0933 8.31684 20.6532C8.73798 20.2131 9.24017 19.8706 9.82331 19.6256C10.4064 19.3806 11.0479 19.2581 11.7477 19.2581C12.1665 19.2581 12.5706 19.3069 12.9593 19.4045C13.348 19.502 13.7086 19.6425 14.0413 19.8263C14.3739 20.0101 14.6763 20.2346 14.9483 20.5001C15.2206 20.7655 15.4494 21.0639 15.6353 21.395L14.0799 22.4286C13.817 22.0268 13.4838 21.7132 13.0809 21.4881C12.6777 21.2628 12.2175 21.1502 11.7005 21.1502C11.2842 21.1502 10.8986 21.2243 10.5437 21.3721C10.1887 21.5202 9.88199 21.7264 9.62353 21.9913C9.36496 22.2563 9.16225 22.5755 9.01549 22.9485C8.86863 23.3217 8.7953 23.7334 8.7953 24.1838C8.7953 24.6475 8.87088 25.0671 9.02213 25.4422C9.17328 25.8176 9.37912 26.1367 9.63993 26.3994C9.90055 26.6621 10.2073 26.8642 10.5601 27.0054C10.9128 27.1469 11.293 27.2173 11.7005 27.2173C12.2175 27.2173 12.6777 27.1081 13.0809 26.8895C13.4838 26.671 13.8234 26.3564 14.0997 25.9457L15.5769 27.1254Z" fill="black"/>
  <path d="M19.7212 25.5602H22.8052L21.2633 22.0486L19.7212 25.5602ZM23.6476 27.4657H18.879L18.218 28.963H16.2224L20.4209 19.4352H22.1055L26.304 28.963H24.3085L23.6476 27.4657Z" fill="black"/>
</svg>
